<?xml version="1.0" standalone="no"?>
<!DOCTYPE svg PUBLIC "-//W3C//DTD SVG 20010904//EN"
 "http://www.w3.org/TR/2001/REC-SVG-20010904/DTD/svg10.dtd">
<svg version="1.0" xmlns="http://www.w3.org/2000/svg"
 width="400.000000pt" height="400.000000pt" viewBox="0 0 400.000000 400.000000"
 preserveAspectRatio="xMidYMid meet">

<g transform="translate(0.000000,400.000000) scale(0.100000,-0.100000)"
fill="#000000" stroke="none">
<path d="M1940 3130 c-8 -5 -44 -9 -80 -9 -61 0 -137 -8 -152 -17 -3 -2 -30
-6 -60 -9 -56 -5 -220 -44 -228 -54 -15 -18 -186 -90 -230 -97 -19 -3 -46 -12
-60 -18 -25 -13 -68 -22 -230 -52 -47 -8 -94 -17 -105 -19 -11 -2 -60 -9 -109
-15 -49 -6 -105 -14 -125 -19 -86 -21 -148 -40 -176 -55 -16 -9 -41 -16 -55
-16 -27 0 -93 -16 -125 -30 -11 -4 -46 -13 -78 -19 -32 -6 -74 -18 -92 -27
l-35 -16 0 -1329 0 -1329 1181 2 c1111 3 1181 4 1193 21 7 9 22 17 33 17 11 0
37 15 59 33 21 18 60 43 86 56 25 12 52 29 58 37 7 7 18 14 25 14 8 0 26 11
42 24 15 13 45 26 65 30 29 5 39 13 44 32 3 13 11 23 18 22 37 -7 78 35 61 62
-4 7 2 9 19 4 33 -8 56 10 56 43 0 18 4 24 15 19 16 -6 65 37 65 56 0 6 3 8 7
5 10 -11 53 34 53 55 0 10 6 18 14 18 20 0 59 57 52 75 -3 8 3 16 14 20 11 3
22 20 26 38 3 17 16 43 27 58 11 15 17 35 14 43 -4 11 1 18 18 22 14 3 23 10
20 14 -3 4 6 23 20 41 42 58 76 142 81 199 3 30 7 61 9 68 3 7 0 23 -4 35 -5
13 -12 103 -15 200 -4 123 -10 185 -20 204 -7 16 -17 48 -21 73 -4 25 -14 57
-21 72 -8 15 -14 37 -14 48 0 32 -42 170 -51 170 -4 0 -11 17 -15 37 -4 21
-17 56 -29 78 -12 22 -27 60 -35 85 -7 25 -20 52 -27 61 -7 8 -13 30 -13 47 0
17 -5 34 -10 37 -13 8 -80 112 -80 125 0 5 -13 25 -30 43 -16 19 -30 39 -30
45 0 6 -3 12 -7 14 -17 7 -93 107 -93 121 0 8 -17 29 -37 47 -106 90 -135 118
-159 152 -14 20 -36 39 -49 42 -13 3 -44 26 -69 51 -26 25 -53 45 -60 45 -8 0
-33 15 -55 34 -23 19 -55 37 -71 41 -17 4 -35 15 -40 25 -7 12 -26 21 -58 26
-26 3 -60 13 -76 22 -17 8 -53 14 -82 13 -29 0 -56 4 -59 9 -8 13 -85 13 -105
0z m132 -291 c48 2 59 -1 70 -18 12 -19 13 -19 31 -4 15 14 21 15 39 4 11 -7
22 -10 25 -7 10 10 44 -15 37 -26 -5 -8 3 -9 25 -5 24 5 35 2 48 -13 11 -12
30 -20 50 -20 23 0 33 -5 33 -16 0 -10 6 -13 18 -10 9 3 30 -1 45 -9 15 -8 34
-12 41 -9 7 3 16 -2 19 -10 4 -9 1 -16 -6 -16 -7 0 0 -10 16 -21 15 -11 27
-27 27 -35 0 -16 14 -18 40 -4 14 7 20 6 24 -7 4 -9 2 -21 -3 -26 -12 -12 10
-37 32 -37 8 0 20 -6 26 -14 7 -8 23 -17 37 -20 18 -5 23 -10 16 -19 -5 -7
-11 -21 -14 -33 -4 -17 2 -23 29 -33 28 -10 33 -16 27 -33 -4 -15 -3 -18 6
-13 19 12 91 14 84 3 -3 -5 -17 -13 -30 -18 -17 -7 -23 -16 -22 -35 1 -14 6
-25 10 -25 14 0 60 -49 89 -95 24 -38 33 -44 53 -39 20 5 24 2 24 -20 0 -14
-4 -24 -8 -21 -4 2 -16 -5 -26 -17 -14 -15 -15 -20 -4 -16 17 6 61 -14 79 -36
13 -15 7 -21 -20 -18 -3 1 -3 -12 -1 -28 3 -23 8 -28 28 -25 13 1 21 -2 18 -7
-6 -10 36 -98 48 -98 14 0 8 -28 -8 -34 -27 -10 -4 -28 28 -20 31 6 31 6 25
-29 -4 -29 -2 -36 19 -47 13 -8 24 -17 24 -22 0 -5 -4 -6 -10 -3 -16 10 -11
-15 6 -33 15 -15 15 -16 -1 -22 -14 -5 -15 -8 -3 -18 8 -6 15 -28 16 -48 1
-25 9 -44 27 -60 25 -23 34 -41 14 -29 -15 10 -46 -22 -44 -46 1 -12 11 -29
24 -38 27 -20 20 -48 -15 -57 -13 -3 -24 -9 -24 -13 0 -13 24 -31 43 -31 11 0
23 -13 33 -35 18 -45 19 -42 -21 -49 -38 -7 -48 -26 -15 -26 25 0 28 -8 33
-87 4 -64 -5 -79 -38 -67 -8 4 -15 1 -15 -5 0 -6 5 -11 11 -11 6 0 3 -7 -5
-16 -18 -17 -25 -46 -23 -88 2 -28 -7 -38 -47 -51 -15 -4 -17 -8 -8 -17 15
-15 16 -48 2 -48 -6 0 -10 -6 -9 -12 3 -27 -2 -38 -17 -38 -8 0 -13 -4 -10 -9
3 -4 -6 -13 -19 -19 -14 -7 -25 -16 -25 -22 0 -5 -12 -10 -26 -10 -21 0 -24
-4 -19 -20 7 -24 -9 -58 -19 -41 -11 17 -46 13 -52 -6 -17 -51 -27 -72 -34
-68 -4 3 -13 -2 -20 -10 -7 -8 -25 -15 -41 -15 -16 0 -37 -8 -47 -17 -10 -10
-31 -25 -47 -33 -17 -8 -38 -21 -48 -29 -17 -14 -20 -14 -32 2 -12 17 -13 17
-20 0 -5 -12 -9 -14 -12 -5 -7 19 -31 14 -38 -7 -15 -49 -61 -48 -90 1 -17 29
-19 30 -31 13 -8 -11 -14 -31 -14 -45 0 -34 -10 -44 -24 -24 -10 13 -14 12
-26 -10 -14 -27 -25 -32 -35 -16 -3 5 -19 7 -35 3 -25 -4 -34 0 -57 26 -31 35
-43 39 -43 13 0 -27 -73 -24 -94 3 -13 17 -17 18 -25 6 -16 -25 -41 -22 -41 5
0 15 -6 24 -15 24 -8 0 -15 -4 -15 -10 0 -5 -7 -10 -15 -10 -8 0 -15 5 -15 11
0 5 -8 9 -17 8 -33 -3 -43 1 -43 16 0 8 -6 15 -14 15 -7 0 -16 9 -19 20 -4 17
-12 19 -46 16 -40 -4 -64 7 -39 17 7 3 3 6 -9 6 -13 1 -23 7 -23 16 0 9 -6 12
-16 8 -11 -4 -15 0 -14 13 1 10 2 30 1 44 -2 24 -2 24 -16 6 -11 -15 -17 -16
-28 -8 -8 7 -17 9 -20 5 -4 -3 -7 1 -7 11 0 9 -5 14 -10 11 -6 -3 -15 6 -21
22 -5 15 -13 30 -17 33 -4 3 -13 18 -20 33 -9 22 -18 27 -39 25 -21 -2 -28 1
-27 14 1 10 -1 17 -5 16 -14 -3 -41 15 -35 23 3 5 -1 9 -9 9 -8 0 -18 7 -21
16 -5 13 -9 14 -21 4 -19 -16 -33 -4 -17 12 17 17 15 49 -3 42 -9 -4 -16 3
-21 21 -6 25 -18 33 -74 50 -20 6 -23 5 -12 -6 21 -22 13 -28 -23 -16 -25 7
-35 16 -35 30 0 17 -18 38 -67 77 -8 7 -10 26 -6 60 5 48 5 50 -26 67 -21 12
-31 25 -29 38 2 27 -11 66 -30 88 -13 14 -14 22 -5 36 9 14 5 26 -23 61 -37
46 -39 51 -25 66 24 25 12 89 -20 99 -23 8 -24 22 -2 65 11 23 13 35 5 38 -6
2 -8 10 -5 18 4 10 -2 17 -16 21 -25 6 -27 19 -5 40 11 11 13 24 8 42 -4 14
-6 36 -5 49 4 48 3 89 -4 122 -3 19 -7 52 -8 72 0 21 -7 40 -14 42 -16 7 -6
33 24 66 13 14 23 30 23 37 0 7 16 27 35 46 19 19 35 38 35 44 0 15 36 44 44
36 4 -4 5 -1 2 7 -5 15 46 80 62 80 5 0 15 11 22 25 7 14 16 25 19 25 3 0 17
10 31 21 14 11 18 17 10 13 -8 -4 -3 5 13 21 15 15 27 32 27 37 0 5 4 7 9 4 9
-6 62 30 89 61 9 11 23 18 30 15 7 -2 26 10 42 28 16 18 33 29 39 25 6 -3 11
-1 11 4 0 6 7 11 16 11 8 0 12 5 9 10 -3 6 1 10 9 10 9 0 16 5 16 11 0 5 4 8
9 4 6 -3 20 8 32 25 14 19 25 26 30 19 4 -7 16 -8 29 -4 18 6 20 9 9 16 -10 6
-4 9 18 9 17 0 35 -5 38 -11 5 -7 15 -3 30 11 13 12 28 19 34 16 5 -4 13 -2
16 4 4 6 14 8 23 6 10 -3 24 -1 32 4 8 5 22 7 30 3 8 -3 41 -5 72 -4z m-1607
-879 c3 -5 -1 -10 -9 -10 -9 0 -16 5 -16 10 0 6 4 10 9 10 6 0 13 -4 16 -10z"/>
<path d="M2316 2214 c-3 -9 -6 -23 -6 -33 0 -11 -17 -26 -45 -40 -51 -26 -63
-40 -44 -52 23 -15 43 -10 74 17 21 17 36 23 53 19 22 -5 82 21 82 36 0 3 -19
5 -42 4 -24 -1 -35 -1 -25 2 9 2 15 8 12 13 -3 5 -1 11 5 15 5 3 10 11 10 16
0 6 -4 8 -9 5 -5 -4 -21 -2 -34 3 -20 8 -27 6 -31 -5z"/>
<path d="M2413 2133 c-7 -2 -13 -8 -13 -12 0 -11 120 -64 127 -57 4 3 2 6 -4
6 -6 0 -14 12 -17 26 -5 18 -12 24 -22 20 -9 -3 -22 1 -30 9 -16 16 -21 17
-41 8z"/>
<path d="M2310 1971 c0 -6 -11 -11 -24 -11 -45 0 -55 -50 -18 -92 22 -26 40
-22 78 17 40 41 41 46 14 70 -11 10 -20 15 -20 10 0 -4 -7 -2 -15 5 -10 9 -15
9 -15 1z"/>
<path d="M2182 1611 c-8 -4 -13 -11 -13 -15 1 -3 1 -7 0 -8 -13 -44 2 -43 25
2 15 31 11 36 -12 21z"/>
<path d="M2635 1410 c3 -5 8 -10 11 -10 2 0 4 5 4 10 0 6 -5 10 -11 10 -5 0
-7 -4 -4 -10z"/>
<path d="M2627 1344 c3 -8 0 -21 -7 -29 -7 -8 -9 -15 -5 -15 8 0 34 31 35 41
0 4 -7 9 -14 12 -10 4 -13 1 -9 -9z"/>
<path d="M2645 1303 l-17 -28 23 22 c12 12 20 25 17 28 -3 3 -13 -7 -23 -22z"/>
<path d="M2540 1250 c0 -5 -8 -10 -18 -10 -10 0 -22 -3 -26 -7 -4 -4 -19 -9
-34 -11 -14 -2 -32 -7 -38 -13 -6 -5 -14 -6 -17 -2 -4 3 -12 1 -19 -5 -7 -5
-50 -18 -95 -28 -66 -14 -83 -21 -83 -35 0 -10 10 -21 21 -24 17 -6 19 -9 8
-16 -12 -8 -12 -11 1 -19 10 -6 11 -10 3 -10 -7 0 -13 -4 -13 -10 0 -5 7 -10
15 -10 8 0 15 5 15 10 0 6 5 10 11 10 5 0 7 -4 4 -10 -3 -5 1 -10 10 -10 9 0
14 4 11 9 -3 5 1 12 10 15 10 4 13 13 9 28 -3 13 -3 18 2 12 4 -6 19 -15 33
-19 24 -7 24 -7 5 9 -19 15 -18 16 25 11 25 -2 37 -2 28 1 -10 3 -18 9 -18 14
0 7 22 20 40 24 3 1 19 16 37 34 17 17 39 32 48 32 16 0 45 22 45 34 0 3 -4 6
-10 6 -5 0 -10 -4 -10 -10z"/>
<path d="M2499 1144 c-6 -8 -19 -14 -29 -14 -23 0 -32 -24 -20 -54 13 -36 25
-38 54 -11 15 14 31 25 37 25 14 0 49 38 49 54 0 19 -75 19 -91 0z"/>
<path d="M2650 1134 c0 -22 16 -24 32 -5 15 17 14 19 -8 19 -13 0 -24 -6 -24
-14z"/>
<path d="M2610 1130 c0 -5 4 -10 9 -10 6 0 13 5 16 10 3 6 -1 10 -9 10 -9 0
-16 -4 -16 -10z"/>
<path d="M2780 550 c0 -5 5 -10 10 -10 6 0 10 5 10 10 0 6 -4 10 -10 10 -5 0
-10 -4 -10 -10z"/>
</g>
</svg>
