<?xml version="1.0" standalone="no"?>
<!DOCTYPE svg PUBLIC "-//W3C//DTD SVG 20010904//EN"
 "http://www.w3.org/TR/2001/REC-SVG-20010904/DTD/svg10.dtd">
<svg version="1.0" xmlns="http://www.w3.org/2000/svg"
 width="500.000000pt" height="500.000000pt" viewBox="0 0 500.000000 500.000000"
 preserveAspectRatio="xMidYMid meet">

<g transform="translate(0.000000,500.000000) scale(0.100000,-0.100000)"
fill="#000000" stroke="none">
<path d="M1718 4665 c-9 -9 9 -55 30 -79 9 -10 67 -61 127 -113 155 -133 305
-304 305 -347 0 -9 -35 -22 -107 -40 -247 -62 -483 -186 -644 -339 -122 -116
-301 -342 -381 -482 -76 -132 -88 -166 -230 -635 -14 -49 -33 -87 -54 -110
-32 -35 -33 -35 -116 -34 -92 2 -184 23 -180 42 1 8 -14 12 -47 12 -92 0 -132
-61 -112 -174 6 -34 11 -68 11 -74 0 -17 -25 -15 -41 4 -11 14 -15 11 -31 -20
l-18 -36 33 -72 c36 -76 50 -115 67 -183 12 -47 25 -65 64 -85 24 -12 38 -35
73 -125 71 -179 133 -362 165 -485 39 -153 63 -187 99 -143 13 15 11 16 -12
10 -26 -7 -27 -6 -63 125 -36 130 -88 281 -167 488 -41 106 -102 310 -95 317
2 2 14 -13 27 -34 30 -50 115 -155 274 -338 139 -160 271 -325 260 -325 -4 0
-30 15 -58 34 -92 59 -167 106 -172 106 -3 0 -5 -6 -5 -13 0 -8 -9 -22 -20
-32 -24 -22 -25 -48 -4 -106 9 -24 24 -82 34 -129 16 -76 18 -80 19 -40 1 25
-8 78 -19 118 -24 87 -25 135 -4 153 13 11 21 10 50 -6 110 -63 242 -154 302
-208 38 -34 124 -111 193 -172 68 -60 144 -129 169 -152 107 -99 214 -182 272
-211 35 -18 90 -54 123 -82 60 -49 109 -80 128 -80 6 0 21 10 35 23 21 20 36
23 151 27 88 3 133 9 145 19 17 14 55 24 167 41 37 5 86 18 110 28 24 11 91
25 149 31 58 7 130 16 160 21 30 5 78 11 105 15 28 3 106 19 175 34 69 16 162
36 207 45 97 20 207 69 289 129 86 63 195 127 227 134 29 6 52 36 41 54 -10
16 28 79 48 79 39 0 130 -44 219 -105 62 -43 104 -65 122 -65 19 0 39 -10 57
-30 21 -23 37 -30 65 -30 l38 0 -8 72 c-3 40 -11 80 -16 90 -13 25 0 29 94 27
82 -2 112 4 102 21 -3 5 0 12 6 16 6 4 16 0 20 -9 5 -8 44 -34 87 -57 87 -47
135 -89 198 -174 l44 -58 0 203 -1 204 -67 29 c-160 69 -255 117 -372 187 -69
42 -141 83 -160 91 -47 21 -90 30 -90 20 0 -5 44 -46 98 -91 104 -89 202 -179
202 -187 0 -2 -10 -4 -22 -4 -13 0 -30 -5 -38 -10 -11 -7 -3 -10 30 -10 38 0
262 -69 278 -85 10 -10 -16 -5 -69 13 -125 43 -195 55 -259 44 -54 -10 -64 -9
-95 9 -20 12 -55 21 -82 22 l-48 2 -5 -55 c-6 -70 -21 -74 -101 -26 -62 37
-136 66 -169 66 -10 0 -31 11 -46 24 l-28 23 17 44 c26 68 21 109 -28 252 -53
152 -56 184 -36 375 23 228 9 496 -40 742 -52 263 -220 622 -377 809 -63 74
-183 167 -243 186 -29 10 -56 27 -66 41 -14 22 -14 26 1 49 15 22 24 25 79 25
34 0 154 7 265 14 242 16 256 22 193 79 -22 20 -53 40 -67 43 -15 4 -99 1
-186 -5 -139 -11 -184 -10 -167 2 51 38 132 76 224 106 l115 37 -35 34 c-32
31 -42 35 -107 38 -170 10 -327 -64 -445 -209 -30 -38 -60 -69 -66 -69 -6 0
-27 15 -47 34 -29 29 -52 38 -140 59 -127 31 -319 51 -407 44 l-64 -5 -38 77
c-49 96 -107 174 -207 277 -88 90 -135 123 -209 147 -60 19 -148 31 -157 22z
m502 -620 c30 -32 67 -32 99 -1 25 24 28 24 116 15 50 -5 140 -14 200 -20 132
-13 169 -22 253 -61 51 -24 69 -39 93 -78 38 -62 79 -81 123 -56 23 14 31 15
35 5 2 -7 23 -29 45 -49 71 -61 185 -182 232 -247 24 -34 65 -106 90 -160 25
-54 67 -143 94 -198 55 -116 152 -446 136 -462 -3 -4 -6 3 -6 15 0 12 -5 22
-11 22 -6 0 -8 -8 -5 -17 2 -10 7 -49 11 -88 3 -38 15 -124 26 -190 11 -66 22
-158 25 -205 4 -101 -5 -260 -16 -260 -5 0 -6 10 -4 23 4 21 4 21 -6 -2 -6
-13 -9 -73 -7 -135 l2 -111 58 -119 c55 -114 57 -121 57 -200 0 -44 -9 -116
-19 -158 -18 -78 -17 -89 9 -65 7 6 4 -4 -7 -23 -26 -43 -111 -103 -178 -126
-27 -9 -120 -49 -205 -89 -218 -102 -283 -120 -550 -155 -308 -39 -515 -71
-650 -102 -74 -16 -166 -36 -203 -44 -38 -8 -73 -16 -78 -20 -11 -6 -66 26
-124 72 -22 17 -68 46 -102 63 -62 31 -177 121 -243 191 -19 20 -54 51 -77 68
-30 24 -40 37 -36 52 11 40 -95 155 -257 280 -164 126 -505 490 -643 688 -28
39 -58 72 -67 72 -13 0 -21 20 -33 78 -22 99 -21 114 3 162 31 60 61 63 114
11 l42 -41 146 0 c131 0 148 2 171 20 32 25 59 95 87 228 49 234 133 443 273
680 170 287 356 459 675 628 141 74 264 132 283 134 3 0 16 -11 29 -25z m1527
-1347 c-3 -8 -6 -5 -6 6 -1 11 2 17 5 13 3 -3 4 -12 1 -19z m1168 -1428 c3 -6
-1 -7 -9 -4 -18 7 -21 14 -7 14 6 0 13 -4 16 -10z m-498 -71 c30 -26 10 -28
-37 -4 -27 14 -50 30 -50 35 0 11 64 -13 87 -31z m-3063 -11 c9 -12 16 -31 16
-42 0 -17 -6 -14 -39 18 -22 21 -37 45 -34 52 6 17 36 3 57 -28z"/>
<path d="M1424 3271 c-116 -29 -269 -226 -289 -370 -6 -44 -3 -57 19 -95 37
-64 138 -154 184 -163 20 -4 82 -8 137 -8 98 0 103 1 159 35 32 19 101 80 154
136 54 55 106 105 116 111 18 10 17 14 -23 59 -58 65 -71 97 -59 144 15 57 -8
101 -68 131 -43 21 -65 24 -174 26 -69 1 -139 -2 -156 -6z"/>
<path d="M3561 3204 c0 -11 3 -14 6 -6 3 7 2 16 -1 19 -3 4 -6 -2 -5 -13z"/>
<path d="M2767 2979 c-30 -18 -227 -249 -233 -274 -4 -18 11 -58 56 -149 75
-152 138 -222 245 -272 77 -37 186 -68 213 -61 12 3 11 5 -5 6 -13 0 -23 6
-23 11 0 6 -7 10 -16 10 -8 0 -13 4 -9 9 3 5 1 13 -5 16 -6 4 0 15 15 27 17
13 25 27 22 39 -5 20 20 33 44 24 8 -3 28 4 44 15 17 11 26 20 20 21 -5 0 -1
4 10 8 28 11 42 4 60 -32 24 -49 19 -94 -16 -138 -22 -28 -26 -39 -15 -39 21
0 153 156 161 190 7 32 -17 174 -40 239 -15 44 -97 170 -147 226 -48 55 -103
82 -218 105 -58 12 -114 23 -125 26 -11 2 -28 -1 -38 -7z"/>
<path d="M1954 2904 c-15 -22 -15 -32 -6 -74 6 -27 9 -56 6 -65 -8 -19 6 -19
42 0 16 8 40 15 54 15 14 0 36 6 49 13 22 11 28 9 48 -10 27 -28 35 -28 126
-3 70 20 73 20 97 2 30 -22 54 -87 45 -122 -6 -23 -5 -23 12 -9 10 8 35 22 56
32 20 9 37 23 37 31 0 26 -39 106 -52 106 -7 0 -19 4 -27 9 -12 8 -12 12 -2
25 11 13 11 19 1 32 -16 18 -62 13 -149 -17 -87 -30 -138 -25 -227 21 -43 22
-81 40 -86 40 -4 0 -15 -12 -24 -26z"/>
<path d="M3753 2120 c0 -25 2 -35 4 -22 2 12 2 32 0 45 -2 12 -4 2 -4 -23z"/>
</g>
</svg>
